<svg xmlns="http://www.w3.org/2000/svg" width="22500" height="1040">
      <g transform="translate(11100, 0)">
        <rect x="-25" y="270" width="150" height="60" rx="5" ry="5" fill="#f2f2f2" stroke="#666666" stroke-width="1" /><text x="50" y="305" text-anchor="middle" font-family="Arial" font-size="12">RECTORADO</text><rect x="-25" y="410" width="150" height="60" rx="5" ry="5" fill="#f2f2f2" stroke="#666666" stroke-width="1" /><text x="50" y="445" text-anchor="middle" font-family="Arial" font-size="12">SECRETARIA GENERAL</text><rect x="-525" y="550" width="150" height="60" rx="5" ry="5" fill="#f2f2f2" stroke="#666666" stroke-width="1" /><text x="-450" y="585" text-anchor="middle" font-family="Arial" font-size="12">ASESORIA JURIDICA</text><rect x="-650" y="690" width="150" height="60" rx="5" ry="5" fill="#f2f2f2" stroke="#666666" stroke-width="1" /><text x="-575" y="725" text-anchor="middle" font-family="Arial" font-size="12">GESTION</text><rect x="-650" y="830" width="150" height="60" rx="5" ry="5" fill="#f2f2f2" stroke="#666666" stroke-width="1" /><text x="-575" y="865" text-anchor="middle" font-family="Arial" font-size="12">REPORTES</text><line x1="-575" y1="750" x2="-575" y2="830" stroke="#666666" stroke-width="1" /><line x1="-450" y1="610" x2="-575" y2="690" stroke="#666666" stroke-width="1" /><rect x="-400" y="690" width="150" height="60" rx="5" ry="5" fill="#f2f2f2" stroke="#666666" stroke-width="1" /><text x="-325" y="725" text-anchor="middle" font-family="Arial" font-size="12">AUDITORIA</text><line x1="-450" y1="610" x2="-325" y2="690" stroke="#666666" stroke-width="1" /><line x1="50" y1="470" x2="-450" y2="550" stroke="#666666" stroke-width="1" /><rect x="-275" y="550" width="150" height="60" rx="5" ry="5" fill="#f2f2f2" stroke="#666666" stroke-width="1" /><text x="-200" y="585" text-anchor="middle" font-family="Arial" font-size="12">TESORO</text><rect x="-275" y="690" width="150" height="60" rx="5" ry="5" fill="#f2f2f2" stroke="#666666" stroke-width="1" /><text x="-200" y="725" text-anchor="middle" font-family="Arial" font-size="12">RECAUDACIONES</text><line x1="-200" y1="610" x2="-200" y2="690" stroke="#666666" stroke-width="1" /><line x1="50" y1="470" x2="-200" y2="550" stroke="#666666" stroke-width="1" /><rect x="-25" y="550" width="150" height="60" rx="5" ry="5" fill="#f2f2f2" stroke="#666666" stroke-width="1" /><text x="50" y="585" text-anchor="middle" font-family="Arial" font-size="12">DOC</text><line x1="50" y1="470" x2="50" y2="550" stroke="#666666" stroke-width="1" /><rect x="225" y="550" width="150" height="60" rx="5" ry="5" fill="#f2f2f2" stroke="#666666" stroke-width="1" /><text x="300" y="585" text-anchor="middle" font-family="Arial" font-size="12">SANTOS</text><line x1="50" y1="470" x2="300" y2="550" stroke="#666666" stroke-width="1" /><rect x="475" y="550" width="150" height="60" rx="5" ry="5" fill="#f2f2f2" stroke="#666666" stroke-width="1" /><text x="550" y="585" text-anchor="middle" font-family="Arial" font-size="12">CAR</text><line x1="50" y1="470" x2="550" y2="550" stroke="#666666" stroke-width="1" /><line x1="50" y1="330" x2="50" y2="410" stroke="#666666" stroke-width="1" />
      </g>
    </svg>